<?xml version="1.0" standalone="no"?>
<!DOCTYPE svg PUBLIC "-//W3C//DTD SVG 20010904//EN"
 "http://www.w3.org/TR/2001/REC-SVG-20010904/DTD/svg10.dtd">
<svg version="1.0" xmlns="http://www.w3.org/2000/svg"
 width="200.000000pt" height="200.000000pt" viewBox="0 0 200.000000 200.000000"
 preserveAspectRatio="xMidYMid meet">

<g transform="translate(0.000000,200.000000) scale(0.100000,-0.100000)"
fill="#000000" stroke="none">
<path d="M845 1706 c-138 -33 -264 -122 -344 -242 -71 -105 -96 -190 -96 -324
0 -128 25 -216 91 -316 24 -37 44 -76 44 -88 0 -36 36 -82 83 -105 64 -31 307
-56 307 -32 0 5 13 4 30 -2 45 -17 58 2 31 46 -14 23 -21 51 -21 83 0 74 8 80
66 49 27 -14 57 -35 67 -46 23 -29 22 -84 -3 -109 -11 -11 -20 -22 -20 -23 0
-2 37 -4 81 -5 45 -1 83 -3 85 -5 2 -2 -5 -25 -16 -51 -12 -26 -24 -79 -27
-119 -6 -77 -15 -97 -43 -97 -28 0 -31 24 -15 108 8 42 15 78 15 80 0 1 -11 2
-24 2 -20 0 -25 -8 -40 -68 -19 -79 -43 -116 -79 -120 -68 -8 -55 142 17 189
11 7 53 16 91 19 53 4 70 9 70 20 0 12 -15 16 -67 18 -109 5 -172 -40 -199
-139 -15 -54 -6 -110 22 -135 29 -26 83 -23 114 6 14 13 25 18 25 12 0 -6 12
-19 26 -28 24 -16 28 -16 60 -1 32 16 37 16 59 1 21 -14 28 -14 52 -2 24 12
32 12 57 0 35 -18 71 -4 88 33 14 32 38 33 38 1 0 -31 22 -50 38 -34 7 7 12
16 12 21 0 15 32 77 40 77 4 0 5 -19 3 -43 -7 -58 14 -77 59 -55 28 13 36 13
60 0 22 -11 36 -11 60 -3 38 13 68 39 68 58 0 18 -7 17 -37 -7 -25 -20 -63
-26 -76 -14 -4 4 8 14 26 23 52 26 47 101 -7 101 -37 -1 -76 -45 -76 -88 0
-23 -25 -48 -34 -34 -3 6 -2 29 2 54 5 24 7 49 4 56 -7 22 -40 12 -68 -20
l-27 -33 6 33 c6 27 4 32 -13 32 -15 0 -22 -9 -26 -30 -5 -21 -12 -30 -25 -30
-11 0 -19 6 -19 13 0 20 -33 47 -59 47 -32 0 -71 -43 -71 -79 0 -38 -34 -61
-56 -39 -12 11 -10 19 12 52 31 45 64 134 64 171 0 34 -17 65 -35 65 -8 0 -15
7 -15 15 0 8 9 15 19 15 31 0 64 57 76 129 9 53 14 66 28 65 21 -2 18 15 -5
30 -24 15 -45 -8 -53 -55 -8 -45 -27 -59 -53 -36 -9 8 -38 24 -64 35 -34 15
-48 27 -48 41 0 11 -12 33 -26 50 -26 31 -54 41 -54 19 0 -6 -3 -8 -7 -5 -9 9
-34 -42 -36 -75 -1 -15 -4 -28 -7 -28 -21 1 -29 23 -29 80 0 36 -2 87 -3 114
-3 47 -2 49 29 60 57 19 86 69 51 87 -32 16 -45 24 -72 43 -17 12 -34 16 -50
12 l-25 -6 19 -43 c27 -59 26 -85 -6 -93 -14 -4 -37 -1 -50 5 -32 14 -31 15
-38 -11 -3 -13 -33 -57 -66 -98 -77 -95 -119 -180 -127 -253 -3 -31 -10 -57
-14 -57 -16 0 -39 59 -39 97 0 21 11 62 25 91 30 65 33 122 6 146 -18 16 -19
15 -25 -23 -4 -28 -10 -39 -19 -35 -14 5 -37 -34 -37 -62 0 -8 -4 -13 -9 -10
-12 8 -23 -38 -16 -71 6 -27 6 -28 -10 -8 -10 11 -30 47 -45 80 -130 281 4
607 297 722 60 24 82 27 183 27 93 0 126 -5 174 -22 152 -56 271 -175 328
-327 19 -50 23 -79 22 -180 0 -134 -15 -189 -80 -288 l-34 -52 40 44 c151 165
170 452 45 667 -67 116 -219 226 -356 259 -76 18 -204 18 -274 1z m185 -556
c0 -5 -4 -10 -10 -10 -5 0 -10 5 -10 10 0 6 5 10 10 10 6 0 10 -4 10 -10z
m-126 -391 c25 -19 27 -26 24 -80 -2 -44 -6 -58 -16 -54 -8 3 -15 5 -18 5 -2
0 1 12 7 27 16 42 3 92 -27 103 -26 10 -32 20 -10 20 7 0 25 -10 40 -21z m276
-130 c0 -5 -7 -9 -15 -9 -15 0 -20 12 -9 23 8 8 24 -1 24 -14z m110 -123 c-11
-51 -38 -111 -46 -103 -7 7 15 127 28 150 18 34 30 4 18 -47z m428 -132 c-25
-25 -42 -14 -22 14 12 17 19 21 27 13 8 -8 7 -16 -5 -27z m-328 -4 c15 -36 7
-63 -17 -58 -20 4 -27 29 -19 64 8 32 21 30 36 -6z"/>
<path d="M917 1188 c-9 -7 -21 -27 -26 -45 -11 -39 10 -63 57 -63 38 0 39 9 9
73 -20 43 -24 47 -40 35z"/>
<path d="M741 547 c-11 -19 -24 -49 -27 -67 -4 -20 -14 -35 -26 -37 -22 -6
-24 -33 -3 -33 8 0 15 -7 15 -15 0 -28 -44 -17 -62 15 -31 54 -109 30 -124
-38 -10 -48 -13 -52 -33 -52 -32 0 -34 16 -15 110 23 113 14 140 -45 140 -32
0 -44 -6 -70 -35 -25 -29 -31 -32 -31 -16 0 38 -11 51 -45 51 -34 0 -85 -40
-85 -66 0 -20 14 -17 35 6 10 11 24 20 32 20 16 0 16 -19 1 -143 -9 -75 -9
-100 0 -109 19 -19 33 3 47 80 17 86 48 149 81 164 43 20 49 0 29 -95 -21
-100 -16 -130 24 -147 24 -9 34 -9 57 3 25 13 31 13 50 0 30 -19 73 -7 93 28
23 40 57 44 70 7 14 -39 56 -54 98 -34 29 14 52 50 40 63 -3 2 -18 -5 -34 -17
-37 -27 -61 -18 -69 27 -8 41 0 51 45 55 41 4 55 28 17 28 l-25 0 20 34 c12
22 19 48 17 68 -2 27 -8 34 -29 36 -21 2 -31 -4 -48 -31z m45 -29 c-6 -31 -25
-62 -33 -54 -2 2 1 22 7 45 13 49 36 57 26 9z m-188 -150 c10 -26 9 -35 -2
-46 -20 -20 -36 -6 -36 32 0 55 20 62 38 14z"/>
</g>
</svg>
